# xmcd
# Copyright (C) 1995-1998 Ti Kan
#
# Track frame offsets:
#       150
#       11216
#       24569
#       38190
#       60004
#       73156
#       92109
#       109159
#       126864
#       143606
#       159949
#       177173
#
# Disc length: 2493 seconds
#
# Revision: 0
# Processed by: cddbd v1.5.2PL0 Copyright (c) Steve Scherf et al.
# Submitted via: CD-Import v1.0
#
DISCID=9809bb0c
DTITLE=Biggles - Colossus
DYEAR=2005
DGENRE=
TTITLE0=Hellvedere
TTITLE1=Karmageddon
TTITLE2=Applebite
TTITLE3=Never Turn Away
TTITLE4=Monsoon
TTITLE5=Black Captain
TTITLE6=Colossus
TTITLE7=Sleep
TTITLE8=City Burning
TTITLE9=Bloodsucker
TTITLE10=We May Run
TTITLE11=Afterglow
EXTD=
EXTT0=
EXTT1=
EXTT2=
EXTT3=
EXTT4=
EXTT5=
EXTT6=
EXTT7=
EXTT8=
EXTT9=
EXTT10=
EXTT11=
PLAYORDER=
